<?xml version="1.0" encoding="UTF-8"?>
<svg id="Layer_1" xmlns="http://www.w3.org/2000/svg" version="1.1" viewBox="0 0 512 512">
  <!-- Generator: Adobe Illustrator 29.5.1, SVG Export Plug-In . SVG Version: 2.1.0 Build 141)  -->
  <defs>
    <style>
      .st0 {
        fill: #fff;
      }

      .st1 {
        fill: #d548ec;
      }
    </style>
  </defs>
  <path class="st0" d="M364.3,120.1h-132.7c-8.5,0-15.4,6.8-15.4,15.1v39.6c0,9.1-7.5,16.5-16.9,16.5h-39.9c-8.5,0-15.4,6.8-15.4,15.1v178.4c0,8.3,6.9,15.1,15.4,15.1h41.3c8.5,0,15.4-6.8,15.4-15.1v-38.7c0-9.1,7.5-16.5,16.9-16.5h59.1c8.5,0,15.4-6.8,15.4-15.1v-39.1c0-9.1,7.5-16.5,16.9-16.5h39.9c8.5,0,15.4-6.8,15.4-15.1v-108.4c0-8.4-6.9-15.1-15.4-15.1v-.2ZM307.6,242.2c0,9.1-7.5,16.5-16.9,16.5h-57.7c-9.3,0-16.9-7.4-16.9-16.5v-34.8c0-9.1,7.5-16.5,16.9-16.5h57.7c9.3,0,16.9,7.4,16.9,16.5v34.8h0Z"/>
  <path class="st1" d="M290.7,190.9h-57.7c-9.3,0-16.9,7.4-16.9,16.5v34.8c0,9.1,7.5,16.5,16.9,16.5h57.7c9.3,0,16.9-7.4,16.9-16.5v-34.8c0-9.1-7.5-16.5-16.9-16.5h0Z"/>
  <path class="st1" d="M-.5,120v272c0,66.3,53.7,120,120,120h272.9c66.3,0,120-53.7,120-120V120c0-66.3-53.7-120-120-120H119.5C53.3,0-.5,53.7-.5,120ZM379.7,243.6c0,8.3-6.9,15.1-15.4,15.1h-39.9c-9.3,0-16.9,7.4-16.9,16.5v39.1c0,8.3-6.9,15.1-15.4,15.1h-59.1c-9.3,0-16.9,7.4-16.9,16.5v38.7c0,8.3-6.9,15.1-15.4,15.1h-41.3c-8.5,0-15.4-6.8-15.4-15.1v-178.4c0-8.4,6.9-15.1,15.4-15.1h39.9c9.3,0,16.9-7.4,16.9-16.5v-39.6c0-8.4,6.9-15.1,15.4-15.1h132.7c8.5,0,15.4,6.8,15.4,15.1v108.6Z"/>
</svg>