<?xml version="1.0" encoding="UTF-8"?>
<svg id="Layer_1" xmlns="http://www.w3.org/2000/svg" version="1.1" viewBox="0 0 512 512">
  <!-- Generator: Adobe Illustrator 29.5.1, SVG Export Plug-In . SVG Version: 2.1.0 Build 141)  -->
  <defs>
    <style>
      .st0 {
        fill: #fff;
      }

      .st1 {
        fill: #d548ec;
      }

      .st2 {
        fill: #f66;
        stroke: #fff;
        stroke-miterlimit: 10;
        stroke-width: 8px;
      }
    </style>
  </defs>
  <g>
    <path class="st1" d="M291.1,193.4h-57.7c-9.4,0-16.9,7.4-16.9,16.5v34.8c0,9.1,7.6,16.5,16.9,16.5h57.7c9.4,0,16.9-7.4,16.9-16.5v-34.8c0-9.1-7.6-16.5-16.9-16.5Z"/>
    <path class="st1" d="M0,0v512h512V0H0ZM380.1,246.3c0,8.3-6.9,15.1-15.4,15.1h-39.9c-9.4,0-16.9,7.4-16.9,16.5v39.1c0,8.3-6.9,15.1-15.4,15.1h-59.1c-9.4,0-16.9,7.4-16.9,16.5v38.7c0,8.3-6.9,15.1-15.4,15.1h-41.3c-8.5,0-15.4-6.8-15.4-15.1v-178.4c0-8.3,6.9-15.1,15.4-15.1h39.9c9.4,0,16.9-7.4,16.9-16.5v-39.6c0-8.3,6.9-15.1,15.4-15.1h87.7c-4.5,7.7-7.2,16.7-7.2,26.3,0,28.7,23.3,52,52,52s10.7-.8,15.6-2.4v47.7Z"/>
    <path class="st0" d="M312.5,148.9c0-9.6,2.6-18.6,7.2-26.3h-87.7c-8.5,0-15.4,6.8-15.4,15.1v39.6c0,9.1-7.5,16.5-16.9,16.5h-39.9c-8.5,0-15.4,6.8-15.4,15.1v178.4c0,8.3,6.9,15.1,15.4,15.1h41.3c8.5,0,15.4-6.8,15.4-15.1v-38.7c0-9.1,7.5-16.5,16.9-16.5h59.1c8.5,0,15.4-6.8,15.4-15.1v-39.1c0-9.1,7.5-16.5,16.9-16.5h39.9c8.5,0,15.4-6.8,15.4-15.1v-47.7c-4.9,1.5-10.2,2.4-15.6,2.4-28.7,0-52-23.3-52-52ZM308,244.7c0,9.1-7.5,16.5-16.9,16.5h-57.7c-9.3,0-16.9-7.4-16.9-16.5v-34.8c0-9.1,7.5-16.5,16.9-16.5h57.7c9.3,0,16.9,7.4,16.9,16.5v34.8Z"/>
  </g>
  <path class="st2" d="M367.7,107.4c21.6,0,39.1,17.5,39.1,39.1s-17.5,39.1-39.1,39.1-39.1-17.5-39.1-39.1,17.5-39.1,39.1-39.1Z"/>
</svg>